<?xml version="1.0" standalone="no"?>
<!DOCTYPE svg PUBLIC "-//W3C//DTD SVG 20010904//EN"
 "http://www.w3.org/TR/2001/REC-SVG-20010904/DTD/svg10.dtd">
<svg version="1.0" xmlns="http://www.w3.org/2000/svg"
 width="259.000000pt" height="259.000000pt" viewBox="0 0 259.000000 259.000000"
 preserveAspectRatio="xMidYMid meet">
<metadata>
Created by potrace 1.15, written by Peter Selinger 2001-2017
</metadata>
<g transform="translate(0.000000,259.000000) scale(0.100000,-0.100000)"
fill="#000000" stroke="none">
<path d="M12 2578 c-17 -17 -17 -2549 0 -2566 17 -17 2549 -17 2566 0 17 17
17 2549 0 2566 -17 17 -2549 17 -2566 0z m2548 -1283 l0 -1265 -400 0 c-374 0
-400 1 -401 18 -1 25 -8 92 -14 132 -15 114 -6 158 60 288 20 40 34 80 31 88
-3 9 -1 12 4 9 6 -3 10 -5 10 -3 0 2 4 18 9 36 6 21 6 30 0 26 -6 -3 -7 4 -3
20 4 16 2 26 -4 26 -8 0 -9 24 -5 73 3 39 5 84 5 99 -1 15 3 30 8 33 5 3 6 21
3 40 -4 23 -2 35 6 35 7 0 11 22 11 57 0 32 0 68 1 81 2 38 -11 72 -26 72 -8
0 -15 6 -15 13 0 14 -73 77 -89 77 -6 0 4 20 22 44 27 37 39 46 75 51 24 4 46
13 49 20 2 7 -9 58 -26 113 -34 110 -38 142 -17 142 8 0 21 3 30 6 12 5 16 0
16 -18 0 -13 9 -29 21 -36 12 -7 18 -16 15 -19 -3 -3 1 -11 9 -17 15 -11 28
-72 42 -211 4 -42 8 -58 11 -40 1 17 19 75 37 131 24 68 36 125 39 175 2 41 7
94 11 119 4 28 2 61 -5 85 -16 52 -28 155 -18 155 17 0 6 20 -37 74 -25 30
-44 59 -43 63 3 9 -64 95 -99 126 -13 11 -23 26 -23 33 0 16 -76 84 -94 84 -8
0 -31 9 -53 19 -100 51 -139 64 -185 62 -27 -2 -61 4 -81 14 -37 17 -37 17
-212 -9 -216 -33 -357 -80 -390 -130 -10 -15 -30 -28 -48 -32 -21 -4 -39 -17
-53 -37 -11 -18 -26 -31 -32 -30 -6 2 -16 -13 -22 -32 -8 -24 -18 -35 -31 -35
-11 0 -22 -8 -25 -17 -3 -10 -10 -26 -15 -35 -5 -10 -9 -28 -9 -42 0 -17 -8
-27 -30 -36 -16 -7 -30 -18 -30 -25 0 -6 -12 -17 -26 -23 -19 -9 -24 -17 -19
-32 3 -10 1 -28 -4 -39 -7 -13 -8 -22 -1 -26 6 -4 3 -16 -7 -31 -30 -47 -21
-190 23 -346 25 -90 32 -192 13 -203 -6 -4 -8 -14 -5 -22 4 -11 2 -13 -9 -9
-12 4 -15 -6 -15 -62 0 -37 7 -87 14 -112 l15 -45 1 80 c1 44 5 103 10 130 5
28 12 83 15 124 3 40 10 82 15 92 6 10 9 24 8 31 -2 8 6 13 20 12 15 0 22 5
22 18 0 18 15 25 23 11 2 -5 2 -3 1 4 -3 14 20 35 30 26 3 -4 15 3 26 15 14
14 16 22 8 22 -10 0 -10 2 0 9 7 4 25 6 39 3 24 -4 25 -3 19 22 -6 24 -4 26
23 26 40 0 68 -28 74 -74 l6 -38 -35 5 c-19 3 -32 2 -29 -2 2 -5 -4 -11 -14
-14 -14 -3 -18 -1 -14 10 10 25 -20 10 -32 -15 -5 -12 -14 -22 -20 -22 -6 0
-16 -15 -23 -32 -7 -18 -17 -41 -22 -50 -12 -22 -3 -46 21 -53 10 -4 19 -14
19 -23 0 -12 3 -13 12 -4 15 15 48 16 48 2 0 -5 -4 -10 -10 -10 -5 0 -7 -7 -4
-15 4 -8 10 -15 15 -15 12 0 73 -42 77 -52 2 -5 9 -8 17 -8 7 0 15 -13 19 -30
3 -16 11 -30 17 -30 7 0 9 11 6 30 -7 34 6 39 34 14 17 -15 19 -15 30 10 7 14
18 26 26 26 8 0 24 9 36 20 12 11 27 18 35 15 8 -3 20 11 33 40 11 24 27 49
37 54 11 7 13 10 3 11 -7 0 -11 6 -8 15 6 14 -8 30 -28 30 -12 0 -22 50 -21
106 1 41 3 44 26 41 14 -1 35 3 47 9 28 15 56 -9 55 -49 0 -15 5 -33 11 -40 7
-9 7 -19 0 -35 -6 -12 -17 -55 -24 -96 -10 -58 -10 -76 -1 -79 7 -2 12 -8 12
-14 0 -6 -7 -8 -15 -4 -14 5 -16 1 -19 -45 -1 -23 -37 -61 -52 -55 -8 3 -12
-3 -11 -15 1 -12 13 -24 33 -31 24 -8 33 -19 36 -39 4 -24 0 -29 -24 -34 -15
-4 -36 -4 -46 -1 -29 10 -91 -21 -103 -50 -8 -22 -12 -24 -25 -14 -8 7 -14 20
-13 29 1 9 1 30 0 46 -1 23 -3 27 -11 15 -6 -10 -10 -11 -10 -2 0 18 -27 15
-34 -4 -3 -9 -6 -28 -6 -43 0 -15 -3 -31 -7 -35 -12 -12 -11 -87 1 -82 6 2 10
9 8 15 -3 17 11 13 29 -6 9 -10 26 -26 38 -36 24 -19 21 -57 -7 -89 -8 -10
-12 -23 -9 -31 5 -14 -36 -37 -77 -41 -14 -1 -35 -15 -46 -29 -12 -15 -29 -27
-38 -27 -16 -1 -16 -1 0 -10 13 -8 16 -23 13 -83 -3 -72 -3 -72 16 -49 10 13
25 25 32 26 7 1 26 12 41 24 28 21 86 31 86 14 0 -5 26 -13 58 -18 52 -8 57
-11 57 -34 0 -20 -6 -26 -27 -28 -18 -2 -25 -8 -22 -17 3 -7 -4 -20 -16 -28
-11 -8 -20 -20 -18 -27 3 -12 -13 -24 -45 -34 -21 -7 -22 -29 -2 -50 17 -16
20 -56 5 -56 -5 0 -10 -7 -10 -15 0 -9 -9 -15 -22 -15 l-22 0 20 15 c19 13 20
19 11 58 -8 36 -13 43 -28 40 -11 -3 -25 -1 -32 5 -17 14 -57 4 -57 -14 0 -8
-4 -14 -10 -14 -5 0 -10 8 -10 19 0 10 -7 24 -15 31 -12 10 -15 10 -15 -4 0
-9 -5 -16 -10 -16 -15 0 11 -39 30 -44 8 -2 5 -4 -8 -5 -12 0 -25 6 -28 14 -4
9 -16 21 -28 27 -17 8 -15 4 9 -23 17 -18 38 -39 47 -46 9 -7 19 -27 23 -43 4
-17 11 -30 16 -30 5 0 9 -19 9 -42 0 -67 9 -88 37 -88 13 0 21 -4 18 -10 -3
-5 2 -10 12 -11 13 -1 11 -3 -7 -9 -24 -8 -24 -8 -2 -9 12 -1 22 -5 22 -11 0
-5 -10 -11 -22 -12 -13 -1 22 -5 77 -8 55 -3 -140 -7 -432 -8 l-533 -2 0 1265
0 1265 1265 0 1265 0 0 -1265z m-881 675 c1 11 4 11 13 2 7 -7 21 -12 33 -12
16 0 31 -21 67 -92 46 -92 87 -206 80 -226 -1 -5 -15 1 -29 14 -14 13 -33 24
-42 24 -18 0 -163 71 -198 96 -22 16 -31 44 -15 44 5 0 15 11 22 25 7 13 20
26 29 28 9 3 3 5 -14 6 -16 1 -25 5 -20 9 6 4 21 30 34 57 20 43 25 47 32 30
4 -12 8 -14 8 -5z"/>
</g>
</svg>
